<svg width="178" height="60" viewBox="0 0 178 60" fill="none" xmlns="http://www.w3.org/2000/svg">
<path d="M14.8011 9C14.733 8.14773 14.4134 7.48295 13.8423 7.00568C13.2798 6.52841 12.4233 6.28977 11.2727 6.28977C10.5398 6.28977 9.93892 6.37926 9.47017 6.55824C9.00994 6.72869 8.66903 6.96307 8.44744 7.26136C8.22585 7.55966 8.1108 7.90057 8.10227 8.28409C8.08523 8.59943 8.14063 8.88494 8.26847 9.14062C8.40483 9.38778 8.6179 9.61364 8.90767 9.81818C9.19744 10.0142 9.56818 10.1932 10.0199 10.3551C10.4716 10.517 11.0085 10.6619 11.6307 10.7898L13.7784 11.25C15.2273 11.5568 16.4673 11.9616 17.4986 12.4645C18.5298 12.9673 19.3736 13.5597 20.0298 14.2415C20.6861 14.9148 21.1676 15.6733 21.4744 16.517C21.7898 17.3608 21.9517 18.2812 21.9602 19.2784C21.9517 21 21.5213 22.4574 20.669 23.6506C19.8168 24.8438 18.598 25.7514 17.0128 26.3736C15.4361 26.9957 13.5398 27.3068 11.3239 27.3068C9.0483 27.3068 7.0625 26.9702 5.36648 26.2969C3.67898 25.6236 2.36648 24.5881 1.42898 23.1903C0.5 21.7841 0.03125 19.9858 0.0227273 17.7955H6.77273C6.81534 18.5966 7.01563 19.2699 7.37358 19.8153C7.73153 20.3608 8.23438 20.7741 8.8821 21.0554C9.53835 21.3366 10.3182 21.4773 11.2216 21.4773C11.9801 21.4773 12.6151 21.3835 13.1264 21.196C13.6378 21.0085 14.0256 20.7486 14.2898 20.4162C14.554 20.0838 14.6903 19.7045 14.6989 19.2784C14.6903 18.8778 14.5582 18.5284 14.3026 18.2301C14.0554 17.9233 13.6463 17.6506 13.0753 17.4119C12.5043 17.1648 11.733 16.9347 10.7614 16.7216L8.15341 16.1591C5.83523 15.6562 4.0071 14.8168 2.66903 13.6406C1.33949 12.456 0.678977 10.8409 0.6875 8.79545C0.678977 7.13352 1.12216 5.6804 2.01705 4.43608C2.92045 3.18324 4.16903 2.20739 5.76278 1.50852C7.36506 0.809658 9.20171 0.460226 11.2727 0.460226C13.3864 0.460226 15.2145 0.81392 16.7571 1.52131C18.2997 2.22869 19.4886 3.22585 20.3239 4.51278C21.1676 5.79119 21.5938 7.28693 21.6023 9H14.8011ZM23.9482 6.54545V0.818181H46.7038V6.54545H38.8288V27H31.8232V6.54545H23.9482ZM49.3789 27V0.818181H60.68C62.6232 0.818181 64.3235 1.17187 65.7809 1.87926C67.2383 2.58665 68.3718 3.60511 69.1815 4.93466C69.9911 6.2642 70.396 7.85795 70.396 9.71591C70.396 11.5909 69.9783 13.1719 69.1431 14.4588C68.3164 15.7457 67.1531 16.7173 65.6531 17.3736C64.1616 18.0298 62.4187 18.358 60.4244 18.358H53.6744V12.8352H58.9925C59.8278 12.8352 60.5394 12.733 61.1275 12.5284C61.7241 12.3153 62.18 11.9787 62.4954 11.5185C62.8192 11.0582 62.9812 10.4574 62.9812 9.71591C62.9812 8.96591 62.8192 8.35653 62.4954 7.88778C62.18 7.41051 61.7241 7.06108 61.1275 6.83949C60.5394 6.60937 59.8278 6.49432 58.9925 6.49432H56.4869V27H49.3789ZM64.7198 14.983L71.2653 27H63.5437L57.1516 14.983H64.7198ZM71.1214 0.818181H79.0476L84.1612 11.4545H84.3658L89.4794 0.818181H97.4055L87.7919 18.767V27H80.7351V18.767L71.1214 0.818181ZM109.797 27H99.7227V0.818181H109.694C112.387 0.818181 114.714 1.34233 116.674 2.39062C118.643 3.4304 120.16 4.9304 121.225 6.89062C122.299 8.84233 122.836 11.1818 122.836 13.9091C122.836 16.6364 122.304 18.9801 121.238 20.9403C120.173 22.892 118.664 24.392 116.713 25.4403C114.761 26.4801 112.456 27 109.797 27ZM106.831 20.9659H109.541C110.836 20.9659 111.94 20.7571 112.852 20.3395C113.772 19.9219 114.471 19.2017 114.949 18.179C115.434 17.1562 115.677 15.733 115.677 13.9091C115.677 12.0852 115.43 10.6619 114.936 9.6392C114.45 8.61648 113.734 7.89631 112.788 7.47869C111.85 7.06108 110.7 6.85227 109.336 6.85227H106.831V20.9659ZM126.125 27V0.818181H144.994V6.54545H133.233V11.0455H144.023V16.7727H133.233V21.2727H144.943V27H126.125ZM162.633 9C162.565 8.14773 162.245 7.48295 161.674 7.00568C161.112 6.52841 160.255 6.28977 159.105 6.28977C158.372 6.28977 157.771 6.37926 157.302 6.55824C156.842 6.72869 156.501 6.96307 156.279 7.26136C156.058 7.55966 155.943 7.90057 155.934 8.28409C155.917 8.59943 155.973 8.88494 156.1 9.14062C156.237 9.38778 156.45 9.61364 156.74 9.81818C157.029 10.0142 157.4 10.1932 157.852 10.3551C158.304 10.517 158.841 10.6619 159.463 10.7898L161.61 11.25C163.059 11.5568 164.299 11.9616 165.331 12.4645C166.362 12.9673 167.206 13.5597 167.862 14.2415C168.518 14.9148 169 15.6733 169.306 16.517C169.622 17.3608 169.784 18.2812 169.792 19.2784C169.784 21 169.353 22.4574 168.501 23.6506C167.649 24.8438 166.43 25.7514 164.845 26.3736C163.268 26.9957 161.372 27.3068 159.156 27.3068C156.88 27.3068 154.895 26.9702 153.199 26.2969C151.511 25.6236 150.199 24.5881 149.261 23.1903C148.332 21.7841 147.863 19.9858 147.855 17.7955H154.605C154.647 18.5966 154.848 19.2699 155.206 19.8153C155.564 20.3608 156.066 20.7741 156.714 21.0554C157.37 21.3366 158.15 21.4773 159.054 21.4773C159.812 21.4773 160.447 21.3835 160.958 21.196C161.47 21.0085 161.858 20.7486 162.122 20.4162C162.386 20.0838 162.522 19.7045 162.531 19.2784C162.522 18.8778 162.39 18.5284 162.135 18.2301C161.887 17.9233 161.478 17.6506 160.907 17.4119C160.336 17.1648 159.565 16.9347 158.593 16.7216L155.985 16.1591C153.667 15.6562 151.839 14.8168 150.501 13.6406C149.172 12.456 148.511 10.8409 148.52 8.79545C148.511 7.13352 148.954 5.6804 149.849 4.43608C150.752 3.18324 152.001 2.20739 153.595 1.50852C155.197 0.809658 157.034 0.460226 159.105 0.460226C161.218 0.460226 163.047 0.81392 164.589 1.52131C166.132 2.22869 167.321 3.22585 168.156 4.51278C169 5.79119 169.426 7.28693 169.434 9H162.633Z" fill="#ffffff"/>
<path d="M1.27557 59V32.8182H6.81108V43.6207H18.0483V32.8182H23.571V59H18.0483V48.1847H6.81108V59H1.27557ZM52.1946 45.9091C52.1946 48.7642 51.6534 51.1932 50.571 53.196C49.4972 55.1989 48.0313 56.7287 46.1733 57.7855C44.3239 58.8338 42.2443 59.358 39.9347 59.358C37.608 59.358 35.5199 58.8295 33.6705 57.7727C31.821 56.7159 30.3594 55.1861 29.2855 53.1832C28.2116 51.1804 27.6747 48.7557 27.6747 45.9091C27.6747 43.054 28.2116 40.625 29.2855 38.6222C30.3594 36.6193 31.821 35.0937 33.6705 34.0455C35.5199 32.9886 37.608 32.4602 39.9347 32.4602C42.2443 32.4602 44.3239 32.9886 46.1733 34.0455C48.0313 35.0937 49.4972 36.6193 50.571 38.6222C51.6534 40.625 52.1946 43.054 52.1946 45.9091ZM46.5824 45.9091C46.5824 44.0597 46.3054 42.5 45.7514 41.2301C45.206 39.9602 44.4347 38.9972 43.4375 38.3409C42.4403 37.6847 41.2727 37.3565 39.9347 37.3565C38.5966 37.3565 37.429 37.6847 36.4318 38.3409C35.4347 38.9972 34.6591 39.9602 34.1051 41.2301C33.5597 42.5 33.2869 44.0597 33.2869 45.9091C33.2869 47.7585 33.5597 49.3182 34.1051 50.5881C34.6591 51.858 35.4347 52.821 36.4318 53.4773C37.429 54.1335 38.5966 54.4616 39.9347 54.4616C41.2727 54.4616 42.4403 54.1335 43.4375 53.4773C44.4347 52.821 45.206 51.858 45.7514 50.5881C46.3054 49.3182 46.5824 47.7585 46.5824 45.9091ZM70.4982 40.348C70.396 39.3168 69.957 38.5156 69.1815 37.9446C68.4059 37.3736 67.3533 37.0881 66.0238 37.0881C65.1204 37.0881 64.3576 37.2159 63.7354 37.4716C63.1133 37.7188 62.636 38.0639 62.3036 38.5071C61.9798 38.9503 61.8178 39.4531 61.8178 40.0156C61.8008 40.4844 61.8988 40.8935 62.1119 41.2429C62.3335 41.5923 62.636 41.8949 63.0195 42.1506C63.4031 42.3977 63.8462 42.6151 64.3491 42.8026C64.8519 42.9815 65.3888 43.1349 65.9599 43.2628L68.3121 43.8253C69.4542 44.081 70.5025 44.4219 71.457 44.848C72.4116 45.2741 73.2383 45.7983 73.9371 46.4205C74.636 47.0426 75.1772 47.7756 75.5607 48.6193C75.9528 49.4631 76.1531 50.4304 76.1616 51.5213C76.1531 53.1236 75.744 54.5128 74.9343 55.6889C74.1332 56.8565 72.9741 57.7642 71.457 58.4119C69.9485 59.0511 68.1289 59.3707 65.9982 59.3707C63.8846 59.3707 62.0437 59.0469 60.4755 58.3991C58.9158 57.7514 57.6971 56.7926 56.8192 55.5227C55.9499 54.2443 55.494 52.6634 55.4513 50.7798H60.8079C60.8675 51.6577 61.119 52.3906 61.5621 52.9787C62.0138 53.5582 62.6147 53.9972 63.3647 54.2955C64.1232 54.5852 64.9798 54.7301 65.9343 54.7301C66.8718 54.7301 67.6857 54.5937 68.3761 54.321C69.0749 54.0483 69.6161 53.669 69.9996 53.1832C70.3832 52.6974 70.5749 52.1392 70.5749 51.5085C70.5749 50.9205 70.4002 50.4261 70.0508 50.0256C69.7099 49.625 69.207 49.2841 68.5423 49.0028C67.886 48.7216 67.0806 48.4659 66.1261 48.2358L63.2752 47.5199C61.0678 46.983 59.3249 46.1435 58.0465 45.0014C56.7681 43.8594 56.1332 42.321 56.1417 40.3864C56.1332 38.8011 56.555 37.4162 57.4073 36.2315C58.2681 35.0469 59.4485 34.1222 60.9485 33.4574C62.4485 32.7926 64.1531 32.4602 66.0621 32.4602C68.0053 32.4602 69.7013 32.7926 71.1502 33.4574C72.6076 34.1222 73.7411 35.0469 74.5508 36.2315C75.3604 37.4162 75.7781 38.7884 75.8036 40.348H70.4982ZM79.8849 59V32.8182H90.2145C92.2003 32.8182 93.892 33.1974 95.2898 33.956C96.6875 34.706 97.7528 35.75 98.4858 37.0881C99.2273 38.4176 99.598 39.9517 99.598 41.6903C99.598 43.429 99.223 44.9631 98.473 46.2926C97.723 47.6222 96.6364 48.6577 95.2131 49.3991C93.7983 50.1406 92.0852 50.5114 90.0739 50.5114H83.4901V46.0753H89.179C90.2443 46.0753 91.1222 45.892 91.8125 45.5256C92.5114 45.1506 93.0313 44.6349 93.3722 43.9787C93.7216 43.3139 93.8963 42.5511 93.8963 41.6903C93.8963 40.821 93.7216 40.0625 93.3722 39.4148C93.0313 38.7585 92.5114 38.2514 91.8125 37.8935C91.1136 37.527 90.2273 37.3438 89.1534 37.3438H85.4205V59H79.8849ZM108.729 32.8182V59H103.194V32.8182H108.729ZM112.286 37.3821V32.8182H133.789V37.3821H125.773V59H120.302V37.3821H112.286ZM138.644 59H132.712L141.75 32.8182H148.884L157.909 59H151.978L145.419 38.8011H145.215L138.644 59ZM138.273 48.7088H152.284V53.0298H138.273V48.7088ZM161.061 59V32.8182H166.596V54.4361H177.821V59H161.061Z" fill="#ffffff"/>
</svg>
